<?xml version="1.0" encoding="UTF-8"?>
<svg xmlns="http://www.w3.org/2000/svg" viewBox="0 0 200 200" width="200" height="200" preserveAspectRatio="xMidYMid meet">
  <!--
    ChiroPillar mascot · icon-only · transparent background.
    Stone column character with capital, fluted shaft, friendly face,
    cheek blush, smile, waving arm, blue base plinth, ground shadow.
    Sized to look great at 96-140px on dark backgrounds.
  -->

  <!-- ground shadow -->
  <ellipse cx="100" cy="185" rx="76" ry="6" fill="#000000" opacity="0.20"/>

  <!-- capital (top stone) -->
  <rect x="36" y="22" width="128" height="22" rx="3" fill="#EBD8A6" stroke="#7A6A45" stroke-width="1.5"/>
  <rect x="44" y="28" width="112" height="10" rx="2" fill="#F0E0B8"/>

  <!-- shaft with flutes -->
  <rect x="52" y="44" width="96" height="112" fill="#EBD8A6" stroke="#7A6A45" stroke-width="1.5"/>
  <line x1="68"  y1="48" x2="68"  y2="152" stroke="#7A6A45" stroke-width="1.2" opacity="0.55"/>
  <line x1="84"  y1="48" x2="84"  y2="152" stroke="#7A6A45" stroke-width="1.2" opacity="0.55"/>
  <line x1="116" y1="48" x2="116" y2="152" stroke="#7A6A45" stroke-width="1.2" opacity="0.55"/>
  <line x1="132" y1="48" x2="132" y2="152" stroke="#7A6A45" stroke-width="1.2" opacity="0.55"/>

  <!-- eyes -->
  <circle cx="82"  cy="84" r="7"   fill="#FFFFFF" stroke="#1F4E79" stroke-width="1.5"/>
  <circle cx="118" cy="84" r="7"   fill="#FFFFFF" stroke="#1F4E79" stroke-width="1.5"/>
  <circle cx="82"  cy="84" r="3.5" fill="#1F4E79"/>
  <circle cx="118" cy="84" r="3.5" fill="#1F4E79"/>
  <circle cx="83.2" cy="82.4" r="1.2" fill="#FFFFFF"/>
  <circle cx="119.2" cy="82.4" r="1.2" fill="#FFFFFF"/>

  <!-- cheek blush -->
  <ellipse cx="68"  cy="100" rx="6" ry="3.5" fill="#F2B0A0" opacity="0.85"/>
  <ellipse cx="132" cy="100" rx="6" ry="3.5" fill="#F2B0A0" opacity="0.85"/>

  <!-- smile -->
  <path d="M 86 106 Q 100 118 114 106" stroke="#1F4E79" stroke-width="2.6" fill="none" stroke-linecap="round"/>

  <!-- waving arm (right side, raised) -->
  <path d="M 150 76 Q 174 60 172 38" stroke="#EBD8A6" stroke-width="11" fill="none" stroke-linecap="round"/>
  <path d="M 150 76 Q 174 60 172 38" stroke="#7A6A45" stroke-width="1.5" fill="none" stroke-linecap="round" opacity="0.45"/>
  <circle cx="172" cy="36" r="8" fill="#EBD8A6" stroke="#7A6A45" stroke-width="1.5"/>

  <!-- left arm (resting at side) -->
  <path d="M 50 110 Q 38 126 44 144" stroke="#EBD8A6" stroke-width="11" fill="none" stroke-linecap="round"/>
  <path d="M 50 110 Q 38 126 44 144" stroke="#7A6A45" stroke-width="1.5" fill="none" stroke-linecap="round" opacity="0.45"/>
  <circle cx="44" cy="146" r="8" fill="#EBD8A6" stroke="#7A6A45" stroke-width="1.5"/>

  <!-- base plinth (blue accent) -->
  <rect x="36" y="158" width="128" height="20" rx="3" fill="#2E75B6" stroke="#1F4E79" stroke-width="1.5"/>
</svg>
